<svg xmlns="http://www.w3.org/2000/svg" viewBox="0 0 600 180" width="600" height="180"><rect width="600.0" height="180.0" fill="#ffffff"/><path d="M5.0,4.6 Q300.0,7.4 594.2,7.6 M593.5,5.3 Q594.1,90.0 593.3,173.3 M592.6,173.8 Q300.0,175.5 6.0,173.1 M6.1,173.3 Q7.3,90.0 5.8,5.3" fill="none" stroke="#868e96" stroke-width="1.2" stroke-linecap="round" stroke-dasharray="7 5"/><path d="M7.5,4.8 Q300.0,5.1 594.7,6.6 M593.6,7.1 Q594.8,90.0 592.9,173.0 M595.2,173.7 Q300.0,175.7 4.9,174.2 M6.9,172.7 Q5.8,90.0 6.3,7.3" fill="none" stroke="#868e96" stroke-width="1.2" stroke-linecap="round" stroke-dasharray="7 5"/><text x="13" y="19" font-size="7.2" fill="#868e96" font-family="Comic Sans MS, Comic Neue, DejaVu Sans, sans-serif">SingleThreadedAgentRuntime</text><path d="M31,47 L147,47 L147,99 L31,99 Z" fill="#ffffff" stroke="none"/><path d="M30.2,47.4 Q89.0,45.8 147.9,46.0 M147.0,46.0 Q147.8,73.0 148.4,100.9 M147.4,98.7 Q89.0,101.5 31.0,100.6 M31.5,101.5 Q29.0,73.0 30.5,46.4" fill="none" stroke="#1e1e1e" stroke-width="1.6" stroke-linecap="round"/><path d="M28.4,46.1 Q89.0,44.8 146.6,45.0 M146.5,45.9 Q148.6,73.0 147.8,101.1 M148.4,100.0 Q89.0,99.9 30.5,99.9 M31.6,101.6 Q29.5,73.0 31.1,46.7" fill="none" stroke="#1e1e1e" stroke-width="1.6" stroke-linecap="round"/><text x="89.0" y="72.2" font-size="9.4" fill="#1e1e1e" font-family="Comic Sans MS, Comic Neue, DejaVu Sans, sans-serif" font-weight="bold" text-anchor="middle">Agent A</text><text x="89.0" y="83.0" font-size="6.8" fill="#767d84" font-family="DejaVu Sans Mono, monospace" text-anchor="middle">type + key</text><path d="M241,35 L357,35 L357,73 L241,73 Z" fill="#e7f5ff" stroke="none"/><path d="M239.1,33.3 Q299.0,33.3 356.6,34.9 M359.1,33.6 Q358.2,54.0 359.5,75.1 M357.1,75.3 Q299.0,75.8 239.9,75.5 M238.6,74.4 Q239.8,54.0 240.9,33.3" fill="none" stroke="#1971c2" stroke-width="1.6" stroke-linecap="round"/><path d="M239.5,35.5 Q299.0,32.5 358.8,32.8 M356.7,32.6 Q358.4,54.0 359.0,73.0 M357.8,73.0 Q299.0,73.8 240.7,72.8 M238.8,73.7 Q240.2,54.0 239.1,33.3" fill="none" stroke="#1971c2" stroke-width="1.6" stroke-linecap="round"/><text x="299.0" y="57.2" font-size="9.4" fill="#1e1e1e" font-family="Comic Sans MS, Comic Neue, DejaVu Sans, sans-serif" font-weight="bold" text-anchor="middle">Agent B</text><path d="M241,97 L357,97 L357,135 L241,135 Z" fill="#e7f5ff" stroke="none"/><path d="M241.0,95.4 Q299.0,97.7 359.2,95.1 M359.1,96.5 Q358.2,116.0 356.7,137.6 M357.2,136.9 Q299.0,137.0 239.5,135.3 M238.7,136.3 Q239.3,116.0 239.2,96.3" fill="none" stroke="#1971c2" stroke-width="1.6" stroke-linecap="round"/><path d="M239.9,97.5 Q299.0,95.5 357.9,96.2 M357.0,94.9 Q357.4,116.0 359.3,137.0 M357.0,136.8 Q299.0,136.9 241.4,135.0 M241.2,136.3 Q240.7,116.0 239.7,94.7" fill="none" stroke="#1971c2" stroke-width="1.6" stroke-linecap="round"/><text x="299.0" y="119.2" font-size="9.4" fill="#1e1e1e" font-family="Comic Sans MS, Comic Neue, DejaVu Sans, sans-serif" font-weight="bold" text-anchor="middle">Agent C</text><path d="M453,47 L569,47 L569,99 L453,99 Z" fill="#ebfbee" stroke="none"/><path d="M453.5,45.2 Q511.0,44.3 570.7,45.2 M570.3,45.3 Q569.3,73.0 569.0,100.7 M569.1,100.2 Q511.0,101.6 453.1,100.4 M453.3,99.1 Q451.5,73.0 450.5,45.3" fill="none" stroke="#2f9e44" stroke-width="1.6" stroke-linecap="round"/><path d="M450.6,45.0 Q511.0,45.8 569.6,46.2 M569.6,47.3 Q570.8,73.0 571.5,100.5 M570.3,98.8 Q511.0,99.3 450.5,98.5 M452.6,101.5 Q452.9,73.0 450.5,46.4" fill="none" stroke="#2f9e44" stroke-width="1.6" stroke-linecap="round"/><text x="511.0" y="72.2" font-size="9.4" fill="#1e1e1e" font-family="Comic Sans MS, Comic Neue, DejaVu Sans, sans-serif" font-weight="bold" text-anchor="middle">ClosureAgent</text><text x="511.0" y="83.0" font-size="6.8" fill="#767d84" font-family="DejaVu Sans Mono, monospace" text-anchor="middle">toplayıcı</text><path d="M150.7,65.4 Q194.0,59.9 239.6,52.6" fill="none" stroke="#1e1e1e" stroke-width="1.4" stroke-linecap="round"/><path d="M150.8,67.3 Q194.0,60.2 238.8,54.7" fill="none" stroke="#1e1e1e" stroke-width="1.4" stroke-linecap="round"/><path d="M238.0,54.0 L232.8,59.6" fill="none" stroke="#1e1e1e" stroke-width="1.4" stroke-linecap="round"/><path d="M238.0,54.0 L231.1,51.0" fill="none" stroke="#1e1e1e" stroke-width="1.4" stroke-linecap="round"/><text x="194.0" y="54.0" font-size="7.4" fill="#767d84" font-family="Comic Sans MS, Comic Neue, DejaVu Sans, sans-serif" text-anchor="middle">publish</text><path d="M151.2,81.7 Q193.4,98.7 238.9,113.2" fill="none" stroke="#1e1e1e" stroke-width="1.4" stroke-linecap="round"/><path d="M150.4,81.6 Q193.9,97.3 238.3,112.3" fill="none" stroke="#1e1e1e" stroke-width="1.4" stroke-linecap="round"/><path d="M238.0,112.0 L230.2,114.1" fill="none" stroke="#1e1e1e" stroke-width="1.4" stroke-linecap="round"/><path d="M238.0,112.0 L234.1,106.6" fill="none" stroke="#1e1e1e" stroke-width="1.4" stroke-linecap="round"/><path d="M359.6,54.8 Q404.9,61.0 450.3,65.8" fill="none" stroke="#1e1e1e" stroke-width="1.4" stroke-linecap="round"/><path d="M358.7,54.8 Q404.8,61.5 448.5,66.3" fill="none" stroke="#1e1e1e" stroke-width="1.4" stroke-linecap="round"/><path d="M450.0,66.0 L443.2,68.9" fill="none" stroke="#1e1e1e" stroke-width="1.4" stroke-linecap="round"/><path d="M450.0,66.0 L444.7,61.0" fill="none" stroke="#1e1e1e" stroke-width="1.4" stroke-linecap="round"/><path d="M361.3,115.2 Q405.2,99.5 448.4,81.4" fill="none" stroke="#1e1e1e" stroke-width="1.4" stroke-linecap="round"/><path d="M359.0,114.9 Q405.3,99.7 451.3,82.5" fill="none" stroke="#1e1e1e" stroke-width="1.4" stroke-linecap="round"/><path d="M450.0,82.0 L445.6,88.7" fill="none" stroke="#1e1e1e" stroke-width="1.4" stroke-linecap="round"/><path d="M450.0,82.0 L442.5,80.5" fill="none" stroke="#1e1e1e" stroke-width="1.4" stroke-linecap="round"/><text x="30" y="122" font-size="7.6" fill="#767d84" font-family="Comic Sans MS, Comic Neue, DejaVu Sans, sans-serif">mesaj kuyruğu · tek iş parçacığı · sıra korunur</text><text x="30" y="136" font-size="7.6" fill="#c92a2a" font-family="Comic Sans MS, Comic Neue, DejaVu Sans, sans-serif">ajanlar birbirini çağırmaz — runtime taşır</text></svg>