<svg xmlns="http://www.w3.org/2000/svg" viewBox="0 0 600 150" width="600" height="150"><rect width="600.0" height="150.0" fill="#ffffff"/><path d="M17,31 L133,31 L133,73 L17,73 Z" fill="#f8f9fa" stroke="none"/><path d="M14.7,29.7 Q75.0,28.4 132.7,31.3 M134.1,29.5 Q134.8,52.0 135.1,72.9 M133.5,73.2 Q75.0,74.6 14.4,73.8 M16.3,72.6 Q15.3,52.0 15.4,29.8" fill="none" stroke="#868e96" stroke-width="1.6" stroke-linecap="round"/><path d="M14.7,28.9 Q75.0,31.5 134.9,28.5 M134.2,29.2 Q133.3,52.0 135.1,74.9 M135.0,73.1 Q75.0,74.6 16.3,74.1 M15.4,73.7 Q16.5,52.0 16.9,30.0" fill="none" stroke="#868e96" stroke-width="1.6" stroke-linecap="round"/><text x="75.0" y="51.2" font-size="8" fill="#1e1e1e" font-family="Comic Sans MS, Comic Neue, DejaVu Sans, sans-serif" font-weight="bold" text-anchor="middle">kod bloğu</text><text x="75.0" y="62.0" font-size="6.8" fill="#767d84" font-family="DejaVu Sans Mono, monospace" text-anchor="middle">modelden</text><path d="M136.4,52.5 Q154.0,52.3 173.2,52.0" fill="none" stroke="#1e1e1e" stroke-width="1.4" stroke-linecap="round"/><path d="M135.6,50.5 Q154.0,52.3 172.8,51.0" fill="none" stroke="#1e1e1e" stroke-width="1.4" stroke-linecap="round"/><path d="M172.0,52.0 L166.2,56.8" fill="none" stroke="#1e1e1e" stroke-width="1.4" stroke-linecap="round"/><path d="M172.0,52.0 L166.0,47.4" fill="none" stroke="#1e1e1e" stroke-width="1.4" stroke-linecap="round"/><path d="M175,9 L363,9 L363,47 L175,47 Z" fill="#fff5f5" stroke="none"/><path d="M173.7,6.6 Q269.0,7.4 363.9,8.2 M363.0,6.7 Q364.3,28.0 364.4,46.4 M363.1,48.1 Q269.0,48.5 174.7,49.3 M175.6,49.5 Q174.2,28.0 174.4,7.1" fill="none" stroke="#c92a2a" stroke-width="1.6" stroke-linecap="round"/><path d="M173.0,9.6 Q269.0,7.9 363.8,8.8 M362.8,7.0 Q364.7,28.0 363.2,47.5 M363.8,47.7 Q269.0,48.8 172.7,46.6 M172.7,47.8 Q173.8,28.0 172.4,8.1" fill="none" stroke="#c92a2a" stroke-width="1.6" stroke-linecap="round"/><text x="269.0" y="27.2" font-size="8" fill="#1e1e1e" font-family="Comic Sans MS, Comic Neue, DejaVu Sans, sans-serif" font-weight="bold" text-anchor="middle">LocalCommandLine…</text><text x="269.0" y="38.0" font-size="6.8" fill="#767d84" font-family="DejaVu Sans Mono, monospace" text-anchor="middle">host makinede</text><path d="M175,61 L363,61 L363,99 L175,99 Z" fill="#ebfbee" stroke="none"/><path d="M174.6,59.7 Q269.0,58.5 365.6,59.2 M364.8,59.5 Q364.0,80.0 363.5,100.4 M365.2,99.7 Q269.0,98.3 174.7,100.6 M173.2,98.7 Q173.8,80.0 175.2,58.6" fill="none" stroke="#2f9e44" stroke-width="1.6" stroke-linecap="round"/><path d="M174.1,58.9 Q269.0,60.1 364.5,61.3 M363.6,58.8 Q363.6,80.0 365.5,100.1 M365.0,99.6 Q269.0,99.5 172.6,98.8 M173.5,101.2 Q174.3,80.0 174.8,61.5" fill="none" stroke="#2f9e44" stroke-width="1.6" stroke-linecap="round"/><text x="269.0" y="79.2" font-size="8" fill="#1e1e1e" font-family="Comic Sans MS, Comic Neue, DejaVu Sans, sans-serif" font-weight="bold" text-anchor="middle">DockerCommandLine…</text><text x="269.0" y="90.0" font-size="6.8" fill="#767d84" font-family="DejaVu Sans Mono, monospace" text-anchor="middle">konteynerde</text><path d="M365.4,28.9 Q384.0,28.3 400.5,28.1" fill="none" stroke="#1e1e1e" stroke-width="1.4" stroke-linecap="round"/><path d="M366.0,26.8 Q384.0,28.7 402.0,28.1" fill="none" stroke="#1e1e1e" stroke-width="1.4" stroke-linecap="round"/><path d="M402.0,28.0 L395.6,32.7" fill="none" stroke="#1e1e1e" stroke-width="1.4" stroke-linecap="round"/><path d="M402.0,28.0 L395.6,23.5" fill="none" stroke="#1e1e1e" stroke-width="1.4" stroke-linecap="round"/><path d="M365.1,79.4 Q384.0,80.0 401.7,81.4" fill="none" stroke="#1e1e1e" stroke-width="1.4" stroke-linecap="round"/><path d="M365.0,79.0 Q384.0,79.3 403.6,81.3" fill="none" stroke="#1e1e1e" stroke-width="1.4" stroke-linecap="round"/><path d="M402.0,80.0 L395.3,84.3" fill="none" stroke="#1e1e1e" stroke-width="1.4" stroke-linecap="round"/><path d="M402.0,80.0 L395.2,75.6" fill="none" stroke="#1e1e1e" stroke-width="1.4" stroke-linecap="round"/><path d="M405,9 L587,9 L587,47 L405,47 Z" fill="#fff5f5" stroke="none"/><path d="M404.1,9.4 Q496.0,7.4 589.0,8.1 M587.9,8.7 Q587.5,28.0 588.9,47.2 M588.2,48.0 Q496.0,46.8 403.7,47.1 M402.8,48.4 Q404.0,28.0 405.3,8.9" fill="none" stroke="#c92a2a" stroke-width="1.6" stroke-linecap="round"/><path d="M404.0,8.6 Q496.0,8.4 586.8,6.6 M587.6,8.5 Q587.4,28.0 587.7,47.5 M587.5,48.8 Q496.0,47.0 405.0,47.0 M402.6,47.7 Q404.8,28.0 404.0,9.1" fill="none" stroke="#c92a2a" stroke-width="1.6" stroke-linecap="round"/><text x="496.0" y="31.2" font-size="7.8" fill="#1e1e1e" font-family="Comic Sans MS, Comic Neue, DejaVu Sans, sans-serif" font-weight="bold" text-anchor="middle">→ host'un her şeyi</text><path d="M405,61 L587,61 L587,99 L405,99 Z" fill="#ebfbee" stroke="none"/><path d="M404.2,59.6 Q496.0,58.8 589.3,58.8 M589.0,59.4 Q588.4,80.0 589.4,98.6 M586.7,100.2 Q496.0,100.4 405.5,99.4 M403.3,99.8 Q404.2,80.0 404.2,59.2" fill="none" stroke="#2f9e44" stroke-width="1.6" stroke-linecap="round"/><path d="M404.0,61.3 Q496.0,60.7 587.3,61.5 M586.5,60.5 Q588.5,80.0 588.7,99.9 M589.6,98.9 Q496.0,101.6 405.2,101.3 M405.2,99.9 Q403.6,80.0 405.3,61.2" fill="none" stroke="#2f9e44" stroke-width="1.6" stroke-linecap="round"/><text x="496.0" y="83.2" font-size="7.8" fill="#1e1e1e" font-family="Comic Sans MS, Comic Neue, DejaVu Sans, sans-serif" font-weight="bold" text-anchor="middle">→ yalıtılmış</text><text x="16" y="122" font-size="7.6" fill="#767d84" font-family="Comic Sans MS, Comic Neue, DejaVu Sans, sans-serif">Her kod bloğu bir dosyaya yazılıp AYRI BİR SÜREÇTE koşuyor — yani bloklar arası değişken paylaşımı yok.</text><text x="16" y="138" font-size="7.6" fill="#c92a2a" font-family="Comic Sans MS, Comic Neue, DejaVu Sans, sans-serif">Local, modelin yazdığı kodu makinende koşturur. Bu bir tercih değil, bir güven kararıdır.</text></svg>