<svg xmlns="http://www.w3.org/2000/svg" viewBox="0 0 600 156" width="600" height="156"><rect width="600.0" height="156.0" fill="#ffffff"/><path d="M15,21 L125,21 L125,63 L15,63 Z" fill="#ebfbee" stroke="none"/><path d="M15.0,21.2 Q70.0,18.7 125.6,19.3 M124.7,19.1 Q126.5,42.0 125.0,65.1 M125.0,65.4 Q70.0,65.1 15.3,62.7 M15.6,63.6 Q13.7,42.0 14.4,20.6" fill="none" stroke="#2f9e44" stroke-width="1.6" stroke-linecap="round"/><path d="M12.6,20.7 Q70.0,20.5 127.0,19.8 M126.7,21.6 Q126.3,42.0 127.4,63.0 M126.0,65.6 Q70.0,63.1 15.5,63.9 M15.2,62.8 Q14.7,42.0 13.7,21.4" fill="none" stroke="#2f9e44" stroke-width="1.6" stroke-linecap="round"/><text x="70.0" y="41.2" font-size="8" fill="#1e1e1e" font-family="Comic Sans MS, Comic Neue, DejaVu Sans, sans-serif" font-weight="bold" text-anchor="middle">profil 1</text><text x="70.0" y="52.0" font-size="6.8" fill="#767d84" font-family="DejaVu Sans Mono, monospace" text-anchor="middle">birincil</text><path d="M127.8,42.4 Q144.0,41.6 159.5,42.9" fill="none" stroke="#1e1e1e" stroke-width="1.4" stroke-linecap="round"/><path d="M128.3,42.2 Q144.0,41.5 158.5,42.9" fill="none" stroke="#1e1e1e" stroke-width="1.4" stroke-linecap="round"/><path d="M160.0,42.0 L154.2,46.7" fill="none" stroke="#1e1e1e" stroke-width="1.4" stroke-linecap="round"/><path d="M160.0,42.0 L153.3,37.9" fill="none" stroke="#1e1e1e" stroke-width="1.4" stroke-linecap="round"/><text x="144.0" y="36.0" font-size="7.4" fill="#767d84" font-family="Comic Sans MS, Comic Neue, DejaVu Sans, sans-serif" text-anchor="middle">hata</text><path d="M163,21 L273,21 L273,63 L163,63 Z" fill="#e7f5ff" stroke="none"/><path d="M162.7,20.4 Q218.0,18.7 275.3,18.8 M272.6,21.4 Q274.4,42.0 274.5,62.9 M273.8,63.7 Q218.0,63.1 162.9,64.7 M161.3,63.6 Q162.0,42.0 161.6,19.0" fill="none" stroke="#1971c2" stroke-width="1.6" stroke-linecap="round"/><path d="M162.2,21.5 Q218.0,18.8 274.3,19.7 M275.3,19.4 Q274.8,42.0 273.3,64.7 M272.8,62.6 Q218.0,62.6 161.1,65.6 M160.7,64.5 Q162.0,42.0 162.0,18.7" fill="none" stroke="#1971c2" stroke-width="1.6" stroke-linecap="round"/><text x="218.0" y="41.2" font-size="8" fill="#1e1e1e" font-family="Comic Sans MS, Comic Neue, DejaVu Sans, sans-serif" font-weight="bold" text-anchor="middle">profil 2</text><text x="218.0" y="52.0" font-size="6.8" fill="#767d84" font-family="DejaVu Sans Mono, monospace" text-anchor="middle">yedek</text><path d="M275.6,43.5 Q292.0,41.3 307.8,43.6" fill="none" stroke="#1e1e1e" stroke-width="1.4" stroke-linecap="round"/><path d="M275.4,40.7 Q292.0,41.8 308.3,40.9" fill="none" stroke="#1e1e1e" stroke-width="1.4" stroke-linecap="round"/><path d="M308.0,42.0 L302.4,46.4" fill="none" stroke="#1e1e1e" stroke-width="1.4" stroke-linecap="round"/><path d="M308.0,42.0 L301.1,38.0" fill="none" stroke="#1e1e1e" stroke-width="1.4" stroke-linecap="round"/><path d="M311,21 L421,21 L421,63 L311,63 Z" fill="#f8f9fa" stroke="none"/><path d="M310.5,20.3 Q366.0,19.9 420.8,19.9 M420.7,21.2 Q421.8,42.0 422.7,63.0 M421.7,64.4 Q366.0,65.5 310.4,62.8 M310.2,63.0 Q310.2,42.0 310.0,20.4" fill="none" stroke="#868e96" stroke-width="1.6" stroke-linecap="round"/><path d="M308.8,18.6 Q366.0,20.8 422.7,21.6 M423.3,19.6 Q421.9,42.0 420.9,64.5 M423.1,64.8 Q366.0,64.8 308.6,63.4 M308.6,63.1 Q310.5,42.0 308.5,20.6" fill="none" stroke="#868e96" stroke-width="1.6" stroke-linecap="round"/><text x="366.0" y="45.2" font-size="8" fill="#1e1e1e" font-family="Comic Sans MS, Comic Neue, DejaVu Sans, sans-serif" font-weight="bold" text-anchor="middle">profil 3</text><path d="M453,13 L585,13 L585,41 L453,41 Z" fill="#fff4e6" stroke="none"/><path d="M452.7,13.3 Q519.0,13.7 585.0,13.0 M587.0,11.1 Q585.4,27.0 585.4,43.4 M585.7,41.2 Q519.0,41.3 450.5,42.9 M450.9,40.8 Q452.1,27.0 453.6,13.3" fill="none" stroke="#e8590c" stroke-width="1.6" stroke-linecap="round"/><path d="M450.9,13.2 Q519.0,10.2 585.8,13.1 M585.6,13.5 Q586.0,27.0 585.4,43.4 M584.8,43.4 Q519.0,41.0 453.5,40.8 M452.0,41.2 Q452.0,27.0 452.8,13.4" fill="none" stroke="#e8590c" stroke-width="1.6" stroke-linecap="round"/><text x="519.0" y="30.2" font-size="7.8" fill="#1e1e1e" font-family="Comic Sans MS, Comic Neue, DejaVu Sans, sans-serif" font-weight="bold" text-anchor="middle">cooldown</text><path d="M453,49 L585,49 L585,77 L453,77 Z" fill="#fff4e6" stroke="none"/><path d="M453.0,47.7 Q519.0,49.4 586.5,49.1 M586.8,47.8 Q586.2,63.0 587.3,77.5 M585.8,76.9 Q519.0,77.8 452.0,78.8 M453.4,78.9 Q452.2,63.0 450.8,48.0" fill="none" stroke="#e8590c" stroke-width="1.6" stroke-linecap="round"/><path d="M450.5,49.4 Q519.0,47.8 586.5,47.4 M586.5,48.9 Q585.9,63.0 587.2,78.2 M586.2,77.1 Q519.0,77.9 450.5,78.8 M450.7,77.5 Q452.3,63.0 451.1,46.8" fill="none" stroke="#e8590c" stroke-width="1.6" stroke-linecap="round"/><text x="519.0" y="66.2" font-size="7.4" fill="#1e1e1e" font-family="Comic Sans MS, Comic Neue, DejaVu Sans, sans-serif" font-weight="bold" text-anchor="middle">auth-hata önbelleği</text><path d="M453,85 L585,85 L585,113 L453,113 Z" fill="#fff5f5" stroke="none"/><path d="M451.7,83.4 Q519.0,84.7 586.8,85.0 M586.2,83.2 Q586.3,99.0 585.2,113.2 M585.0,112.5 Q519.0,114.7 453.3,114.0 M452.0,115.4 Q451.7,99.0 450.7,85.2" fill="none" stroke="#c92a2a" stroke-width="1.6" stroke-linecap="round"/><path d="M450.5,85.5 Q519.0,83.3 585.3,85.4 M584.8,84.6 Q586.5,99.0 584.9,114.9 M587.5,113.8 Q519.0,114.3 452.5,113.4 M452.1,113.3 Q451.8,99.0 452.3,83.4" fill="none" stroke="#c92a2a" stroke-width="1.6" stroke-linecap="round"/><text x="519.0" y="102.2" font-size="7.4" fill="#1e1e1e" font-family="Comic Sans MS, Comic Neue, DejaVu Sans, sans-serif" font-weight="bold" text-anchor="middle">faturalama kilidi</text><text x="14" y="92" font-size="8" fill="#2f9e44" font-family="Comic Sans MS, Comic Neue, DejaVu Sans, sans-serif">OTURUM YAPIŞKANLIĞI</text><text x="14" y="106" font-size="7.2" fill="#767d84" font-family="Comic Sans MS, Comic Neue, DejaVu Sans, sans-serif">aynı oturum aynı profilde kalır</text><text x="14" y="118" font-size="7.2" fill="#2f9e44" font-family="Comic Sans MS, Comic Neue, DejaVu Sans, sans-serif">gerekçe açıkça yazılı: cache-friendly</text><text x="14" y="144" font-size="7.6" fill="#767d84" font-family="Comic Sans MS, Comic Neue, DejaVu Sans, sans-serif">Model değiştirmek ucuz değil — prompt cache'ini yakıyor. Bu yüzden gereksiz yere değiştirilmiyor.</text></svg>