<svg xmlns="http://www.w3.org/2000/svg" viewBox="0 0 600 200" width="600" height="200"><rect width="600.0" height="200.0" fill="#ffffff"/><path d="M17,11 L583,11 L583,39 L17,39 Z" fill="#fff5f5" stroke="none"/><path d="M17.1,8.7 Q300.0,10.0 583.6,8.6 M583.0,9.4 Q583.8,25.0 585.0,38.6 M583.4,41.0 Q300.0,41.2 15.9,40.4 M15.1,39.8 Q16.5,25.0 14.9,10.9" fill="none" stroke="#c92a2a" stroke-width="1.3" stroke-linecap="round"/><path d="M16.8,9.5 Q300.0,8.3 584.2,9.0 M583.4,9.9 Q583.5,25.0 585.4,40.3 M583.1,41.3 Q300.0,40.6 16.7,40.4 M17.3,38.8 Q16.1,25.0 15.6,11.0" fill="none" stroke="#c92a2a" stroke-width="1.3" stroke-linecap="round"/><text x="28" y="23" font-size="8.2" fill="#1e1e1e" font-family="DejaVu Sans Mono, monospace">max_tool_iterations</text><text x="28" y="35" font-size="6.8" fill="#c92a2a" font-family="DejaVu Sans Mono, monospace">varsayılan: 1</text><text x="210" y="29" font-size="8.4" fill="#454c53" font-family="Comic Sans MS, Comic Neue, DejaVu Sans, sans-serif">model tool sonucunu GÖRMEDEN cevaplar</text><path d="M17,49 L583,49 L583,77 L17,77 Z" fill="#fff5f5" stroke="none"/><path d="M16.4,48.5 Q300.0,48.6 583.9,48.2 M585.4,47.3 Q584.1,63.0 583.2,77.4 M584.4,78.3 Q300.0,79.2 14.6,77.2 M15.3,78.5 Q16.5,63.0 15.7,46.9" fill="none" stroke="#c92a2a" stroke-width="1.3" stroke-linecap="round"/><path d="M16.4,47.2 Q300.0,49.7 584.3,47.4 M582.5,47.8 Q583.6,63.0 584.4,78.8 M582.6,77.9 Q300.0,79.4 16.3,77.9 M15.3,78.7 Q15.5,63.0 16.1,49.4" fill="none" stroke="#c92a2a" stroke-width="1.3" stroke-linecap="round"/><text x="28" y="61" font-size="8.2" fill="#1e1e1e" font-family="DejaVu Sans Mono, monospace">model_context</text><text x="28" y="73" font-size="6.8" fill="#c92a2a" font-family="DejaVu Sans Mono, monospace">varsayılan: yok</text><text x="210" y="67" font-size="8.4" fill="#454c53" font-family="Comic Sans MS, Comic Neue, DejaVu Sans, sans-serif">ajanın belleği yoktur</text><path d="M17,87 L583,87 L583,115 L17,115 Z" fill="#fff5f5" stroke="none"/><path d="M16.4,86.3 Q300.0,84.4 583.8,84.6 M583.4,84.9 Q584.1,101.0 585.1,114.7 M585.3,117.4 Q300.0,117.7 16.5,116.0 M14.6,115.2 Q16.3,101.0 16.0,84.8" fill="none" stroke="#c92a2a" stroke-width="1.3" stroke-linecap="round"/><path d="M16.3,85.2 Q300.0,87.4 584.3,87.1 M585.2,86.9 Q583.8,101.0 584.2,117.3 M583.3,115.1 Q300.0,114.6 14.9,116.7 M16.1,117.6 Q16.4,101.0 15.5,85.1" fill="none" stroke="#c92a2a" stroke-width="1.3" stroke-linecap="round"/><text x="28" y="99" font-size="8.2" fill="#1e1e1e" font-family="DejaVu Sans Mono, monospace">model_client_stream</text><text x="28" y="111" font-size="6.8" fill="#c92a2a" font-family="DejaVu Sans Mono, monospace">varsayılan: False</text><text x="210" y="105" font-size="8.4" fill="#454c53" font-family="Comic Sans MS, Comic Neue, DejaVu Sans, sans-serif">token akışı hiç yayılmaz</text><path d="M17,125 L583,125 L583,153 L17,153 Z" fill="#fff5f5" stroke="none"/><path d="M16.6,123.8 Q300.0,123.5 585.4,123.6 M584.7,124.1 Q583.6,139.0 585.5,154.6 M585.6,154.7 Q300.0,152.6 15.8,153.3 M15.5,155.4 Q16.5,139.0 15.3,123.1" fill="none" stroke="#c92a2a" stroke-width="1.3" stroke-linecap="round"/><path d="M16.5,122.9 Q300.0,125.6 583.9,123.2 M584.5,124.6 Q584.1,139.0 585.3,155.6 M583.4,155.6 Q300.0,154.7 16.1,154.8 M15.0,153.3 Q15.6,139.0 15.7,123.8" fill="none" stroke="#c92a2a" stroke-width="1.3" stroke-linecap="round"/><text x="28" y="137" font-size="8.2" fill="#1e1e1e" font-family="DejaVu Sans Mono, monospace">sonlandırma</text><text x="28" y="149" font-size="6.8" fill="#c92a2a" font-family="DejaVu Sans Mono, monospace">varsayılan: yok</text><text x="210" y="143" font-size="8.4" fill="#454c53" font-family="Comic Sans MS, Comic Neue, DejaVu Sans, sans-serif">takım tavansız koşar</text><text x="16" y="176" font-size="9" fill="#c92a2a" font-family="Comic Sans MS, Comic Neue, DejaVu Sans, sans-serif">Dördünün ortak yanı: HİÇBİRİ HATA VERMEZ.</text><text x="16" y="190" font-size="7.6" fill="#767d84" font-family="Comic Sans MS, Comic Neue, DejaVu Sans, sans-serif">Sistem çalışır, sonuç yanlış olur — ve aramak için önce yanlış olduğunu bilmen gerekir.</text></svg>