<svg xmlns="http://www.w3.org/2000/svg" viewBox="0 0 600 186" width="600" height="186"><rect width="600.0" height="186.0" fill="#ffffff"/><path d="M191,9 L409,9 L409,41 L191,41 Z" fill="#f8f0fc" stroke="none"/><path d="M189.0,9.4 Q300.0,8.1 410.4,8.3 M408.7,8.9 Q409.4,25.0 409.1,41.2 M410.8,43.4 Q300.0,42.6 190.7,41.4 M189.3,41.1 Q189.5,25.0 190.0,8.0" fill="none" stroke="#5f3dc4" stroke-width="1.6" stroke-linecap="round"/><path d="M189.1,9.2 Q300.0,6.6 410.6,6.7 M409.8,7.6 Q409.5,25.0 411.0,42.6 M409.6,42.1 Q300.0,42.2 191.1,42.7 M188.5,41.5 Q189.4,25.0 189.3,8.9" fill="none" stroke="#5f3dc4" stroke-width="1.6" stroke-linecap="round"/><text x="300.0" y="24.2" font-size="8.6" fill="#1e1e1e" font-family="Comic Sans MS, Comic Neue, DejaVu Sans, sans-serif" font-weight="bold" text-anchor="middle">ChatCompletionClient</text><text x="300.0" y="35.0" font-size="6.8" fill="#767d84" font-family="DejaVu Sans Mono, monospace" text-anchor="middle">protokol sınıfı</text><path d="M61,63 L539,63 L539,80 L61,80 Z" fill="#e7f5ff" stroke="none"/><path d="M58.8,61.7 Q300.0,62.4 540.2,61.9 M540.6,61.3 Q540.2,71.5 541.6,80.6 M541.0,80.5 Q300.0,81.0 61.3,81.2 M59.2,80.5 Q60.0,71.5 60.1,63.0" fill="none" stroke="#1971c2" stroke-width="1.1" stroke-linecap="round"/><path d="M61.1,63.4 Q300.0,60.8 538.7,62.5 M538.7,63.5 Q540.2,71.5 539.2,80.7 M540.3,82.3 Q300.0,80.3 61.5,80.9 M61.1,79.9 Q59.7,71.5 59.6,61.1" fill="none" stroke="#1971c2" stroke-width="1.1" stroke-linecap="round"/><text x="70" y="75" font-size="6.8" fill="#1e1e1e" font-family="DejaVu Sans Mono, monospace">OpenAIChatCompletionClient</text><text x="300" y="75" font-size="7.2" fill="#454c53" font-family="Comic Sans MS, Comic Neue, DejaVu Sans, sans-serif">OpenAI + uyumlu (Gemini…)</text><path d="M299.1,45.0 Q299.8,51.0 300.2,58.4" fill="none" stroke="#1e1e1e" stroke-width="1.4" stroke-linecap="round"/><path d="M299.5,43.0 Q299.8,51.0 300.8,58.4" fill="none" stroke="#1e1e1e" stroke-width="1.4" stroke-linecap="round"/><path d="M300.0,58.0 L295.7,51.3" fill="none" stroke="#1e1e1e" stroke-width="1.4" stroke-linecap="round"/><path d="M300.0,58.0 L303.7,51.7" fill="none" stroke="#1e1e1e" stroke-width="1.4" stroke-linecap="round"/><path d="M61,87 L539,87 L539,104 L61,104 Z" fill="#e7f5ff" stroke="none"/><path d="M59.4,84.4 Q300.0,86.6 539.9,85.1 M540.7,86.0 Q539.8,95.5 538.7,105.6 M540.8,105.9 Q300.0,105.1 58.9,104.3 M58.7,103.9 Q60.0,95.5 60.7,84.6" fill="none" stroke="#1971c2" stroke-width="1.1" stroke-linecap="round"/><path d="M58.8,87.3 Q300.0,85.1 540.7,86.8 M539.1,87.0 Q539.8,95.5 539.5,104.6 M539.3,104.6 Q300.0,106.5 61.0,105.0 M60.3,104.4 Q59.8,95.5 61.0,85.5" fill="none" stroke="#1971c2" stroke-width="1.1" stroke-linecap="round"/><text x="70" y="99" font-size="6.8" fill="#1e1e1e" font-family="DejaVu Sans Mono, monospace">AzureOpenAIChatCompletionClient</text><text x="300" y="99" font-size="7.2" fill="#454c53" font-family="Comic Sans MS, Comic Neue, DejaVu Sans, sans-serif">Azure OpenAI</text><path d="M61,111 L539,111 L539,128 L61,128 Z" fill="#e7f5ff" stroke="none"/><path d="M59.6,110.3 Q300.0,109.0 540.5,109.3 M540.5,109.1 Q540.0,119.5 539.4,128.8 M538.8,128.3 Q300.0,127.9 61.3,129.1 M60.1,130.5 Q59.6,119.5 60.0,110.9" fill="none" stroke="#1971c2" stroke-width="1.1" stroke-linecap="round"/><path d="M58.8,111.2 Q300.0,111.2 538.5,108.7 M539.7,110.8 Q539.9,119.5 539.8,129.2 M540.7,130.2 Q300.0,128.8 61.5,128.7 M58.5,129.7 Q60.4,119.5 60.3,108.6" fill="none" stroke="#1971c2" stroke-width="1.1" stroke-linecap="round"/><text x="70" y="123" font-size="6.8" fill="#1e1e1e" font-family="DejaVu Sans Mono, monospace">AzureAIChatCompletionClient</text><text x="300" y="123" font-size="7.2" fill="#454c53" font-family="Comic Sans MS, Comic Neue, DejaVu Sans, sans-serif">GitHub + Azure barındırılan</text><path d="M61,135 L539,135 L539,152 L61,152 Z" fill="#ebfbee" stroke="none"/><path d="M60.7,132.5 Q300.0,133.2 539.7,134.6 M540.1,132.5 Q540.2,143.5 538.8,151.6 M539.7,153.9 Q300.0,153.0 60.7,153.8 M59.9,154.6 Q59.6,143.5 60.1,134.4" fill="none" stroke="#2f9e44" stroke-width="1.1" stroke-linecap="round"/><path d="M58.9,135.6 Q300.0,135.1 539.6,134.0 M538.6,134.8 Q539.6,143.5 538.8,153.9 M540.8,153.0 Q300.0,153.7 60.6,154.3 M60.9,152.1 Q60.2,143.5 60.8,134.5" fill="none" stroke="#2f9e44" stroke-width="1.1" stroke-linecap="round"/><text x="70" y="147" font-size="6.8" fill="#1e1e1e" font-family="DejaVu Sans Mono, monospace">ReplayChatCompletionClient</text><text x="300" y="147" font-size="7.2" fill="#454c53" font-family="Comic Sans MS, Comic Neue, DejaVu Sans, sans-serif">deterministik kuru mod</text><text x="60" y="176" font-size="7.6" fill="#454c53" font-family="Comic Sans MS, Comic Neue, DejaVu Sans, sans-serif">Hepsi aynı protokolü uyguluyor — ajan hangisiyle konuştuğunu bilmiyor. Kuru mod istemcisi de bir istemci.</text></svg>