<svg xmlns="http://www.w3.org/2000/svg" viewBox="0 0 600 188" width="600" height="188"><rect width="600.0" height="188.0" fill="#ffffff"/><path d="M15,11 L583,11 L583,30 L15,30 Z" fill="#e7f5ff" stroke="none"/><path d="M13.0,11.5 Q299.0,10.3 585.4,9.9 M583.1,9.1 Q583.9,20.5 583.3,31.6 M585.5,29.6 Q299.0,32.0 13.0,29.7 M13.6,30.9 Q14.2,20.5 13.4,10.4" fill="none" stroke="#1971c2" stroke-width="1.2" stroke-linecap="round"/><path d="M13.1,9.8 Q299.0,9.7 583.4,8.8 M584.6,10.5 Q583.7,20.5 585.2,30.7 M583.8,30.7 Q299.0,31.4 14.5,29.4 M14.1,30.5 Q14.0,20.5 12.5,10.7" fill="none" stroke="#1971c2" stroke-width="1.2" stroke-linecap="round"/><text x="24" y="24" font-size="7" fill="#1e1e1e" font-family="DejaVu Sans Mono, monospace">ai · llm-core · model-catalog-core</text><text x="300" y="24" font-size="7.4" fill="#454c53" font-family="Comic Sans MS, Comic Neue, DejaVu Sans, sans-serif">sağlayıcı adaptörleri, akış runtime'ı</text><text x="560" y="24" font-size="7" fill="#767d84" font-family="DejaVu Sans Mono, monospace" text-anchor="end">118</text><path d="M15,37 L583,37 L583,56 L15,56 Z" fill="#f8f0fc" stroke="none"/><path d="M14.2,34.9 Q299.0,34.2 582.5,35.0 M582.9,36.6 Q584.4,46.5 584.7,56.6 M583.9,57.0 Q299.0,56.5 15.2,56.4 M14.6,57.6 Q14.3,46.5 12.4,34.7" fill="none" stroke="#5f3dc4" stroke-width="1.2" stroke-linecap="round"/><path d="M13.5,37.4 Q299.0,34.3 585.2,37.1 M584.7,36.9 Q584.3,46.5 585.0,57.9 M583.0,57.9 Q299.0,58.3 14.8,58.3 M15.2,55.8 Q14.0,46.5 15.5,37.2" fill="none" stroke="#5f3dc4" stroke-width="1.2" stroke-linecap="round"/><text x="24" y="50" font-size="7" fill="#1e1e1e" font-family="DejaVu Sans Mono, monospace">gateway-protocol · gateway-client · sdk</text><text x="300" y="50" font-size="7.4" fill="#454c53" font-family="Comic Sans MS, Comic Neue, DejaVu Sans, sans-serif">tipli şema + doğrulayıcı + istemci</text><text x="560" y="50" font-size="7" fill="#767d84" font-family="DejaVu Sans Mono, monospace" text-anchor="end">108</text><path d="M15,63 L583,63 L583,82 L15,82 Z" fill="#ebfbee" stroke="none"/><path d="M12.6,62.2 Q299.0,61.4 584.6,61.5 M583.3,63.0 Q584.4,72.5 582.7,84.4 M583.1,81.8 Q299.0,83.9 15.5,84.3 M12.7,83.5 Q13.8,72.5 15.2,60.4" fill="none" stroke="#2f9e44" stroke-width="1.2" stroke-linecap="round"/><path d="M15.1,61.9 Q299.0,62.5 584.2,63.0 M583.3,62.5 Q584.2,72.5 584.2,83.1 M585.4,82.3 Q299.0,83.6 14.6,84.3 M12.6,82.1 Q13.9,72.5 12.6,60.9" fill="none" stroke="#2f9e44" stroke-width="1.2" stroke-linecap="round"/><text x="24" y="76" font-size="7" fill="#1e1e1e" font-family="DejaVu Sans Mono, monospace">memory-host-sdk</text><text x="300" y="76" font-size="7.4" fill="#454c53" font-family="Comic Sans MS, Comic Neue, DejaVu Sans, sans-serif">bellek sağlayıcı sözleşmesi</text><text x="560" y="76" font-size="7" fill="#767d84" font-family="DejaVu Sans Mono, monospace" text-anchor="end">83</text><path d="M15,89 L583,89 L583,108 L15,108 Z" fill="#fff4e6" stroke="none"/><path d="M13.5,87.6 Q299.0,86.6 583.8,88.5 M584.6,87.6 Q583.9,98.5 584.5,109.2 M584.1,108.4 Q299.0,110.3 14.6,109.8 M13.8,108.9 Q13.8,98.5 13.4,86.5" fill="none" stroke="#e8590c" stroke-width="1.2" stroke-linecap="round"/><path d="M15.6,88.8 Q299.0,86.4 583.8,88.5 M584.7,89.4 Q584.2,98.5 584.9,108.9 M585.4,107.6 Q299.0,107.3 13.7,108.8 M14.4,107.9 Q13.8,98.5 14.8,89.1" fill="none" stroke="#e8590c" stroke-width="1.2" stroke-linecap="round"/><text x="24" y="102" font-size="7" fill="#1e1e1e" font-family="DejaVu Sans Mono, monospace">plugin-sdk · plugin-package-contract</text><text x="300" y="102" font-size="7.4" fill="#454c53" font-family="Comic Sans MS, Comic Neue, DejaVu Sans, sans-serif">eklenti yüzeyi</text><text x="560" y="102" font-size="7" fill="#767d84" font-family="DejaVu Sans Mono, monospace" text-anchor="end">25</text><path d="M15,115 L583,115 L583,134 L15,134 Z" fill="#f8f9fa" stroke="none"/><path d="M14.6,113.3 Q299.0,112.4 584.4,114.6 M585.0,113.5 Q583.6,124.5 584.7,133.9 M583.7,134.2 Q299.0,134.2 13.2,134.1 M12.7,134.1 Q14.2,124.5 13.0,112.9" fill="none" stroke="#868e96" stroke-width="1.2" stroke-linecap="round"/><path d="M14.3,114.5 Q299.0,114.8 585.3,113.8 M583.0,114.1 Q584.4,124.5 584.7,136.3 M583.1,135.3 Q299.0,135.0 15.4,134.5 M15.3,135.2 Q14.4,124.5 13.9,112.8" fill="none" stroke="#868e96" stroke-width="1.2" stroke-linecap="round"/><text x="24" y="128" font-size="7" fill="#1e1e1e" font-family="DejaVu Sans Mono, monospace">terminal-core · markdown-core · media-*</text><text x="300" y="128" font-size="7.4" fill="#454c53" font-family="Comic Sans MS, Comic Neue, DejaVu Sans, sans-serif">çıktı biçimlendirme</text><text x="560" y="128" font-size="7" fill="#767d84" font-family="DejaVu Sans Mono, monospace" text-anchor="end">21</text><path d="M15,141 L583,141 L583,160 L15,160 Z" fill="#fff5f5" stroke="none"/><path d="M12.5,140.4 Q299.0,138.6 584.7,141.6 M585.6,139.7 Q583.9,150.5 582.8,159.6 M584.1,162.6 Q299.0,161.8 13.4,160.2 M13.6,161.2 Q14.2,150.5 12.9,141.1" fill="none" stroke="#c92a2a" stroke-width="1.2" stroke-linecap="round"/><path d="M14.8,141.4 Q299.0,141.5 583.5,138.5 M585.3,139.9 Q584.2,150.5 583.0,159.9 M583.8,162.4 Q299.0,162.2 15.2,161.8 M13.0,161.9 Q14.2,150.5 13.1,140.1" fill="none" stroke="#c92a2a" stroke-width="1.2" stroke-linecap="round"/><text x="24" y="154" font-size="7" fill="#1e1e1e" font-family="DejaVu Sans Mono, monospace">tool-call-repair · retry · net-policy</text><text x="300" y="154" font-size="7.4" fill="#454c53" font-family="Comic Sans MS, Comic Neue, DejaVu Sans, sans-serif">sessiz altyapı</text><text x="560" y="154" font-size="7" fill="#767d84" font-family="DejaVu Sans Mono, monospace" text-anchor="end">6</text><text x="14" y="178" font-size="7.6" fill="#767d84" font-family="Comic Sans MS, Comic Neue, DejaVu Sans, sans-serif">22 paket · dosya sayıları en büyük modülü gösteriyor. Çekirdeğin her ilginç parçası ayrı paket — sıkıştırma bile.</text></svg>