<svg xmlns="http://www.w3.org/2000/svg" viewBox="0 0 600 174" width="600" height="174"><rect width="600.0" height="174.0" fill="#ffffff"/><path d="M15,13 L191,13 L191,129 L15,129 Z" fill="#e7f5ff" stroke="none"/><path d="M14.3,13.6 Q103.0,10.5 190.8,13.1 M191.7,13.3 Q193.3,71.0 191.4,130.6 M193.2,129.9 Q103.0,131.5 12.4,128.9 M14.9,130.2 Q13.9,71.0 15.5,10.7" fill="none" stroke="#1971c2" stroke-width="1.6" stroke-linecap="round"/><path d="M12.7,13.1 Q103.0,11.7 192.8,13.6 M193.2,10.9 Q193.8,71.0 191.1,128.7 M192.9,129.5 Q103.0,130.6 14.2,130.7 M14.2,130.1 Q15.2,71.0 13.7,12.8" fill="none" stroke="#1971c2" stroke-width="1.6" stroke-linecap="round"/><text x="103" y="30" font-size="8.6" fill="#1e1e1e" font-family="Comic Sans MS, Comic Neue, DejaVu Sans, sans-serif" font-weight="bold" text-anchor="middle">① YÜRÜTME</text><text x="103" y="43" font-size="6.8" fill="#767d84" font-family="DejaVu Sans Mono, monospace" text-anchor="middle">status</text><text x="28" y="60" font-size="6.8" fill="#454c53" font-family="DejaVu Sans Mono, monospace">queued</text><text x="28" y="72" font-size="6.8" fill="#454c53" font-family="DejaVu Sans Mono, monospace">running</text><text x="28" y="84" font-size="6.8" fill="#454c53" font-family="DejaVu Sans Mono, monospace">completed</text><text x="28" y="96" font-size="6.8" fill="#454c53" font-family="DejaVu Sans Mono, monospace">failed</text><text x="28" y="108" font-size="6.8" fill="#454c53" font-family="DejaVu Sans Mono, monospace">cancelled</text><text x="28" y="120" font-size="6.8" fill="#454c53" font-family="DejaVu Sans Mono, monospace">timed_out</text><path d="M209,13 L385,13 L385,129 L209,129 Z" fill="#fff4e6" stroke="none"/><path d="M209.5,13.4 Q297.0,11.9 385.3,13.6 M386.2,13.3 Q384.5,71.0 385.4,130.0 M385.2,131.0 Q297.0,129.6 208.8,129.5 M209.0,129.4 Q207.2,71.0 207.2,12.2" fill="none" stroke="#e8590c" stroke-width="1.6" stroke-linecap="round"/><path d="M206.8,11.4 Q297.0,10.4 386.3,13.2 M387.3,11.8 Q387.5,71.0 385.0,130.3 M386.6,128.6 Q297.0,129.2 209.1,128.8 M207.4,131.4 Q207.1,71.0 209.0,12.1" fill="none" stroke="#e8590c" stroke-width="1.6" stroke-linecap="round"/><text x="297" y="30" font-size="8.6" fill="#1e1e1e" font-family="Comic Sans MS, Comic Neue, DejaVu Sans, sans-serif" font-weight="bold" text-anchor="middle">② TESLİMAT</text><text x="297" y="43" font-size="6.8" fill="#767d84" font-family="DejaVu Sans Mono, monospace" text-anchor="middle">deliveryStatus</text><text x="222" y="60" font-size="6.8" fill="#454c53" font-family="DejaVu Sans Mono, monospace">pending</text><text x="222" y="72" font-size="6.8" fill="#454c53" font-family="DejaVu Sans Mono, monospace">delivered</text><text x="222" y="84" font-size="6.8" fill="#454c53" font-family="DejaVu Sans Mono, monospace">session_queued</text><text x="222" y="96" font-size="6.8" fill="#454c53" font-family="DejaVu Sans Mono, monospace">failed</text><text x="222" y="108" font-size="6.8" fill="#454c53" font-family="DejaVu Sans Mono, monospace">parent_missing</text><text x="222" y="120" font-size="6.8" fill="#454c53" font-family="DejaVu Sans Mono, monospace">…</text><path d="M403,13 L579,13 L579,129 L403,129 Z" fill="#ebfbee" stroke="none"/><path d="M401.1,11.2 Q491.0,10.4 579.6,13.1 M580.8,13.0 Q581.6,71.0 578.8,128.4 M581.4,131.2 Q491.0,128.5 402.7,129.6 M400.9,131.0 Q400.5,71.0 403.6,10.5" fill="none" stroke="#2f9e44" stroke-width="1.6" stroke-linecap="round"/><path d="M401.2,11.1 Q491.0,13.0 580.3,13.4 M581.1,10.5 Q579.7,71.0 578.5,129.4 M579.8,129.9 Q491.0,130.3 403.4,129.4 M401.4,131.5 Q400.3,71.0 403.2,10.7" fill="none" stroke="#2f9e44" stroke-width="1.6" stroke-linecap="round"/><text x="491" y="30" font-size="8.6" fill="#1e1e1e" font-family="Comic Sans MS, Comic Neue, DejaVu Sans, sans-serif" font-weight="bold" text-anchor="middle">③ SONUÇ</text><text x="491" y="43" font-size="6.8" fill="#767d84" font-family="DejaVu Sans Mono, monospace" text-anchor="middle">terminalOutcome</text><text x="416" y="60" font-size="6.8" fill="#454c53" font-family="DejaVu Sans Mono, monospace">succeeded</text><text x="416" y="72" font-size="6.8" fill="#454c53" font-family="DejaVu Sans Mono, monospace">blocked</text><text x="14" y="148" font-size="8.6" fill="#c92a2a" font-family="Comic Sans MS, Comic Neue, DejaVu Sans, sans-serif">completed + parent_missing  →  blocked, FAILED DEĞİL</text><text x="14" y="164" font-size="7.6" fill="#767d84" font-family="Comic Sans MS, Comic Neue, DejaVu Sans, sans-serif">"Bu, tamamlanmış sonucu korur; çocuk yürütmesini yanlışlıkla başarısız diye raporlamak yerine."</text></svg>